# xmcd
#
# Track frame offsets:
#	150
#	20344
#	33880
#	36731
#	57250
#	70410
#	93427
#	107878
#	117798
#	139630
#	153236
#	175509
#	193484
#	212303
#	232799
#
# Disc length: 3295 seconds
#
# Revision: 0
# Processed by: cddbd v1.5.1PL0 Copyright (c) Steve Scherf et al.
# Submitted via: dBpowerAMP V4.0
#
DISCID=c50cdd0f
DTITLE=Joe Burns - Road Runner
DYEAR=2003
DGENRE=Blues
TTITLE0=Burning With A BLue Flame
TTITLE1=That's The Way Life Goes
TTITLE2=Frog Guts
TTITLE3=Haus Of Pain
TTITLE4=To The Bone
TTITLE5=Promises
TTITLE6=Whiskey Is...
TTITLE7=1970
TTITLE8=When A Love Song (Sings The Blues)
TTITLE9=Guitar Mojo
TTITLE10=Fade Away
TTITLE11=Remberance
TTITLE12=Don't You Know
TTITLE13=The River
TTITLE14=Your Time Is My Time
EXTD=Awesome blues cd.
EXTT0=
EXTT1=
EXTT2=
EXTT3=
EXTT4=
EXTT5=
EXTT6=
EXTT7=
EXTT8=
EXTT9=
EXTT10=
EXTT11=
EXTT12=
EXTT13=
EXTT14=
PLAYORDER=
